<svg width="51" height="51" viewBox="0 0 51 51" fill="none" xmlns="http://www.w3.org/2000/svg">
<g id="consent-icon">
<circle id="Ellipse 30" cx="25.5" cy="25.5" r="25.5" fill="#DCE7F2"/>
<g id="Group">
<g id="Group_2">
<g id="Group_3">
<path id="Vector" d="M33.9091 39.382H12.4363C11.2503 39.382 10.2891 38.4205 10.2891 37.2348V11.2165C10.2891 10.0306 11.2505 9.06934 12.4363 9.06934H33.9091C35.0951 9.06934 36.0563 10.0308 36.0563 11.2165V37.2345C36.0566 38.4205 35.0951 39.382 33.9091 39.382Z" fill="#97B8D7"/>
<g id="Group_4">
<path id="Vector_2" d="M31.5952 24.0899H14.7554C14.1086 24.0899 13.584 23.5653 13.584 22.9184C13.584 22.2716 14.1083 21.747 14.7554 21.747H31.5952C32.242 21.747 32.7666 22.2713 32.7666 22.9184C32.7666 23.5655 32.242 24.0899 31.5952 24.0899Z" fill="#809CB7"/>
<path id="Vector_3" d="M31.5952 29.5039H14.7554C14.1086 29.5039 13.584 28.9796 13.584 28.3325C13.584 27.6857 14.1083 27.1611 14.7554 27.1611H31.5952C32.242 27.1611 32.7666 27.6857 32.7666 28.3325C32.7666 28.9794 32.242 29.5039 31.5952 29.5039Z" fill="#809CB7"/>
<path id="Vector_4" d="M31.5952 34.9179H14.7554C14.1086 34.9179 13.584 34.3936 13.584 33.7465C13.584 33.0997 14.1083 32.5751 14.7554 32.5751H31.5952C32.242 32.5751 32.7666 33.0994 32.7666 33.7465C32.7666 34.3933 32.242 34.9179 31.5952 34.9179Z" fill="#809CB7"/>
</g>
<path id="Vector_5" d="M31.9057 12.2548H14.4411C13.9668 12.2548 13.582 12.6393 13.582 13.1138V17.3368C13.582 17.8112 13.9666 18.1958 14.4411 18.1958H31.9057C32.3799 18.1958 32.7647 17.8112 32.7647 17.3368V13.1138C32.7647 12.6393 32.3801 12.2548 31.9057 12.2548Z" fill="#809CB7"/>
</g>
<g id="Group_5">
<g id="Group_6">
<path id="Vector_6" d="M27.8696 34.2993L23.4881 35.7087C23.0482 35.8503 22.6326 35.4344 22.7744 34.9945L24.1868 30.6137C24.2892 30.2963 24.4656 30.0077 24.7016 29.772L38.1121 16.3565C38.9986 15.4707 40.4356 15.4712 41.3214 16.3575L42.1236 17.1601C43.0094 18.0467 43.0089 19.4837 42.1226 20.3695L28.7119 33.7853C28.4759 34.021 28.187 34.1971 27.8696 34.2993Z" fill="#9AA4FF"/>
</g>
<g id="Group_7">
<path id="Vector_7" d="M27.0083 33.4385L23.3207 35.5424C22.9504 35.7536 22.7292 35.5321 22.9406 35.1621L25.047 31.4757C25.1995 31.2087 25.4022 30.9464 25.6382 30.7104L39.0487 17.2949C39.9353 16.4091 41.0365 16.0734 41.5083 16.5456L41.9354 16.973C42.4071 17.4452 42.0709 18.546 41.1846 19.4321L27.7741 32.8476C27.5379 33.0836 27.2756 33.286 27.0083 33.4385Z" fill="#EEF3F8"/>
</g>
<g id="Group_8">
<path id="Vector_8" d="M40.0116 22.4787L36.001 18.4659L34.5608 19.9053L38.5713 23.9181L40.0116 22.4787Z" fill="black"/>
</g>
<g id="Group_9">
<path id="Vector_9" d="M24.7552 29.7191L24.7016 29.7727C24.4656 30.0084 24.2892 30.297 24.1868 30.6144L22.7744 34.9952C22.6326 35.4352 23.0482 35.851 23.4881 35.7095L27.8696 34.3001C28.187 34.1978 28.4759 34.0217 28.7119 33.786L28.7655 33.7324L24.7552 29.7191Z" fill="#E6E7E8"/>
</g>
<g id="Group_10">
<path id="Vector_10" d="M23.3208 35.5421L27.0084 33.4382C27.2757 33.2857 27.5382 33.0833 27.774 32.8475L27.8276 32.7939L25.6917 30.6567L25.6383 30.7104C25.4023 30.9461 25.1997 31.2084 25.0471 31.4757L22.9407 35.1621C22.7291 35.5318 22.9505 35.7533 23.3208 35.5421Z" fill="white"/>
</g>
<g id="Group_11">
<path id="Vector_11" d="M23.207 33.6522L22.7744 34.9944C22.6326 35.4344 23.0482 35.8502 23.4881 35.7087L24.8306 35.2768L23.207 33.6522Z" fill="black"/>
</g>
</g>
</g>
</g>
</g>
</svg>
