<svg width="51" height="51" viewBox="0 0 51 51" fill="none" xmlns="http://www.w3.org/2000/svg">
<g id="introduction-icon">
<circle id="Ellipse 27" cx="25.5" cy="25.5" r="25.5" fill="#9AA4FF"/>
<g id="Group">
<g id="Group_2">
<g id="Group_3">
<path id="Vector" d="M27.2291 23.6415C27.608 23.7565 27.9869 23.8715 28.3658 23.9864C29.5041 24.3319 30.7381 23.9578 31.4929 23.0385C31.8632 22.5875 31.6493 21.9048 31.0881 21.7456C28.311 20.9583 26.6933 18.2744 23.9949 17.3813C23.2606 17.1381 22.4347 17.084 21.7269 17.3955C21.5622 17.4681 21.4061 17.5632 21.264 17.6764L18.4917 14.9041L11.9053 21.4906L14.6857 24.2712C13.988 25.6433 14.2522 27.3085 15.3407 28.397L24.202 37.2582L32.5239 28.9363L27.2291 23.6415Z" fill="#E6E7E8"/>
<g id="Group_4">
<path id="Vector_2" d="M37.2345 20.702L34.4541 23.4825L35.2428 24.2712L38.0233 21.4908L37.2345 20.702Z" fill="#E6E7E8"/>
<path id="Vector_3" d="M35.2434 24.271L38.0238 21.4906L31.4374 14.9041L24.9629 21.3786L33.2848 29.7005L34.5886 28.3968C35.6769 27.3082 35.9413 25.643 35.2434 24.271Z" fill="white"/>
<path id="Vector_4" d="M32.5195 28.9364C32.8079 29.2247 33.0482 29.4651 33.2837 29.7006L34.5873 28.3971C35.6758 27.3085 35.94 25.6433 35.2423 24.2713L34.4535 23.4825C35.1512 24.8545 34.9114 26.5443 33.8228 27.6326L32.5195 28.9364Z" fill="#E6E7E8"/>
<path id="Vector_5" d="M37.6906 23.2456L40.6682 20.268C41.0167 19.9196 41.0167 19.3543 40.6682 19.0059L33.924 12.2616C33.5755 11.9131 33.0103 11.9131 32.6618 12.2616L29.6842 15.2392C29.3357 15.5877 29.3357 16.1529 29.6842 16.5014L36.4285 23.2456C36.7769 23.5941 37.3422 23.5941 37.6906 23.2456Z" fill="#6776FF"/>
<path id="Vector_6" d="M36.1108 21.6682L39.0884 18.6906C39.4369 18.3421 39.4369 17.7772 39.0884 17.4285L40.666 19.0061C41.0145 19.3546 41.0145 19.9198 40.666 20.2682L37.6884 23.2458C37.34 23.5943 36.775 23.5943 36.4263 23.2458L34.8486 21.6682C35.1974 22.0167 35.7623 22.0167 36.1108 21.6682Z" fill="#CCD1FF"/>
<path id="Vector_7" d="M36.3115 19.8204C36.825 19.8204 37.2412 19.4042 37.2412 18.8908C37.2412 18.3773 36.825 17.9611 36.3115 17.9611C35.7981 17.9611 35.3818 18.3773 35.3818 18.8908C35.3818 19.4042 35.7981 19.8204 36.3115 19.8204Z" fill="#CCD1FF"/>
</g>
<g id="Group_5">
<path id="Vector_8" d="M12.6921 20.7016L11.9033 21.4903L14.6837 24.2707L15.4725 23.482L12.6921 20.7016Z" fill="#BCBEC0"/>
<path id="Vector_9" d="M12.239 23.2454L9.26135 20.2678C8.91288 19.9193 8.91288 19.3541 9.26135 19.0056L16.0056 12.2614C16.3541 11.9129 16.9193 11.9129 17.2678 12.2614L20.2454 15.239C20.5939 15.5874 20.5939 16.1526 20.2454 16.5011L13.5011 23.2454C13.1526 23.5939 12.5874 23.5939 12.239 23.2454Z" fill="#3449FF"/>
<path id="Vector_10" d="M13.8166 21.668L10.839 18.6904C10.4905 18.3419 10.4905 17.7769 10.839 17.4282L9.26135 19.0058C8.91288 19.3543 8.91288 19.9193 9.26135 20.268L12.239 23.2456C12.5874 23.5941 13.1524 23.5941 13.5011 23.2456L15.0787 21.668C14.73 22.0164 14.1651 22.0164 13.8166 21.668Z" fill="#6776FF"/>
<path id="Vector_11" d="M14.2744 19.548C13.9115 19.9109 13.3226 19.9109 12.9597 19.548C12.5968 19.185 12.5968 18.5962 12.9597 18.2333C13.3226 17.8703 13.9115 17.8703 14.2744 18.2333C14.6373 18.5965 14.6373 19.185 14.2744 19.548Z" fill="#6776FF"/>
<g id="Group_6">
<path id="Vector_12" d="M32.3951 32.9691L30.4424 31.0164L32.5228 28.9359L34.4755 30.8887C35.0502 31.4633 35.0502 32.3948 34.4755 32.9691C33.9012 33.5437 32.9697 33.5437 32.3951 32.9691Z" fill="#E6E7E8"/>
<path id="Vector_13" d="M34.4753 32.9685C34.6131 32.8304 34.7179 32.672 34.7898 32.5027C34.2542 32.7296 33.6116 32.6251 33.1751 32.1883L32.0025 31.0157C31.5728 30.586 30.8771 30.585 30.4459 31.0122L30.4424 31.0157L32.3951 32.9685C32.9695 33.5431 33.9009 33.5431 34.4753 32.9685Z" fill="#BCBEC0"/>
</g>
<g id="Group_7">
<g id="Group_8">
<path id="Vector_14" d="M30.0766 34.8153L28.3584 33.0971L30.4388 31.0167L32.1571 32.7349C32.7317 33.3095 32.7317 34.241 32.1571 34.8153C31.5827 35.3897 30.6512 35.3897 30.0766 34.8153Z" fill="#E6E7E8"/>
</g>
<path id="Vector_15" d="M30.8568 34.0348L29.9185 33.0965C29.4883 32.6663 28.7911 32.6658 28.3602 33.0947L28.3584 33.0965L30.0766 34.8147C30.6512 35.3893 31.5827 35.3893 32.1571 34.8147C32.2949 34.6767 32.3997 34.5183 32.4715 34.349C31.936 34.5762 31.2934 34.4713 30.8568 34.0348Z" fill="#BCBEC0"/>
</g>
<g id="Group_9">
<path id="Vector_16" d="M27.4455 36.3432L26.2793 35.1769L28.3597 33.0965L29.5259 34.2627C30.1005 34.8374 30.1005 35.7688 29.5259 36.3432C28.9513 36.9178 28.0199 36.9178 27.4455 36.3432Z" fill="#E6E7E8"/>
<path id="Vector_17" d="M27.4455 36.3432L26.2793 35.1769L28.3597 33.0965L29.5259 34.2627C30.1005 34.8374 30.1005 35.7688 29.5259 36.3432C28.9513 36.9178 28.0199 36.9178 27.4455 36.3432Z" fill="#E6E7E8"/>
<path id="Vector_18" d="M29.8404 35.8768C29.68 35.9634 29.465 35.9911 29.2853 35.9936C28.8907 35.9989 28.5046 35.8421 28.2254 35.5629L27.8394 35.1769C27.4087 34.7462 26.7108 34.7462 26.2798 35.1764L26.2793 35.1769L27.4455 36.3431C28.0201 36.9177 28.9516 36.9177 29.5259 36.3431C29.664 36.2048 29.7688 36.0461 29.8404 35.8768Z" fill="#BCBEC0"/>
</g>
<g id="Group_10">
<path id="Vector_19" d="M24.6546 37.7146L24.1982 37.2583L26.2787 35.1779L26.735 35.6342C27.3096 36.2088 27.3096 37.1403 26.735 37.7146C26.1606 38.2892 25.2292 38.2892 24.6546 37.7146Z" fill="#E6E7E8"/>
<path id="Vector_20" d="M27.0495 37.249C26.514 37.4759 25.8714 37.3711 25.4348 36.9345L20.5238 32.0235L20.5324 32.0148L16.1262 27.6083C15.0376 26.5198 14.7734 24.8546 15.4711 23.4825L14.6823 24.2713C13.9846 25.6434 14.2488 27.3086 15.3373 28.3971L19.7438 32.8037L24.6549 37.7147C25.2295 38.2893 26.161 38.2893 26.7353 37.7147C26.8731 37.5767 26.978 37.418 27.0495 37.249Z" fill="#BCBEC0"/>
</g>
</g>
<path id="Vector_21" d="M18.4393 23.0384C18.069 22.5874 18.2829 21.9047 18.8441 21.7455C21.6212 20.9582 23.2389 18.2743 25.9374 17.3812C26.6716 17.138 27.4975 17.084 28.2053 17.3954C28.9132 17.7068 29.4624 18.4377 29.4106 19.2093C29.3685 19.8354 28.9662 20.3709 28.5802 20.8656C28.0675 21.5224 27.5434 22.1902 26.8554 22.6605C25.8368 23.3567 24.8719 22.9831 23.8092 23.3057C23.0615 23.5326 22.3138 23.7595 21.5661 23.9864C20.4283 24.3318 19.1941 23.9577 18.4393 23.0384Z" fill="white"/>
<path id="Vector_22" d="M32.6004 29.0128C32.3382 28.3808 31.9288 27.5128 31.3461 26.5941C30.9194 25.5332 30.7631 24.4865 31.3694 23.2373C31.4578 23.0551 31.288 22.8599 31.0946 22.9203C30.2674 23.1787 29.3768 23.149 28.5367 22.9708C27.7066 22.7947 26.965 22.3772 26.1421 22.1853C25.5152 22.0388 24.8574 22.0675 24.2244 22.1845C23.4018 22.3363 22.598 22.6165 21.7943 22.836C21.3651 22.9533 20.9775 23.0772 20.5278 23.0487C19.7263 22.9982 18.9659 22.6124 18.4522 21.9952C18.2083 22.2787 18.1753 22.7178 18.4392 23.0391C19.1941 23.9584 20.4283 24.3325 21.5663 23.987C22.314 23.7601 23.0617 23.5332 23.8094 23.3063C24.3782 23.1337 24.965 23.17 25.5462 23.1398C26.0551 23.1134 26.5708 23.218 27.0287 23.4416L32.6004 29.0128Z" fill="#D1D3D4"/>
<g id="Group_11">
<g id="Group_12">
<path id="Vector_23" d="M17.5377 32.9689L18.4502 32.0565C19.0248 31.4819 19.0248 30.5504 18.4502 29.9761C17.8755 29.4015 16.9441 29.4015 16.3697 29.9761L15.4573 30.8885C14.8827 31.4631 14.8827 32.3946 15.4573 32.9689C16.0317 33.5435 16.9631 33.5435 17.5377 32.9689Z" fill="white"/>
<path id="Vector_24" d="M16.7487 32.1799L17.6611 31.2675C18.0959 30.8327 18.201 30.1936 17.9776 29.6594C18.1492 29.7312 18.3104 29.8363 18.4499 29.9759C19.0246 30.5505 19.0246 31.4819 18.4499 32.0563L17.5375 32.9687C16.9629 33.5433 16.0315 33.5433 15.4571 32.9687C15.3175 32.8291 15.2125 32.668 15.1406 32.4964C15.6749 32.7197 16.314 32.6147 16.7487 32.1799Z" fill="#D1D3D4"/>
</g>
<g id="Group_13">
<g id="Group_14">
<path id="Vector_25" d="M19.8522 34.8151L21.6674 32.9999C22.242 32.4253 22.242 31.4939 21.6674 30.9195C21.0928 30.3449 20.1613 30.3449 19.587 30.9195L17.7718 32.7347C17.1972 33.3093 17.1972 34.2408 17.7718 34.8151C18.3461 35.3895 19.2776 35.3895 19.8522 34.8151Z" fill="white"/>
</g>
<path id="Vector_26" d="M19.0641 34.0261L20.8793 32.2109C21.3141 31.7761 21.4192 31.1371 21.1958 30.6028C21.3674 30.6746 21.5286 30.7797 21.6681 30.9193C22.2428 31.4939 22.2428 32.4254 21.6681 32.9997L19.853 34.8149C19.2784 35.3895 18.3469 35.3895 17.7725 34.8149C17.633 34.6753 17.5279 34.5142 17.4561 34.3426C17.9903 34.5659 18.6291 34.4609 19.0641 34.0261Z" fill="#D1D3D4"/>
</g>
<g id="Group_15">
<path id="Vector_27" d="M22.484 36.3435L25.1451 33.6824C25.7197 33.1078 25.7197 32.1763 25.1451 31.602C24.5705 31.0274 23.6391 31.0274 23.0647 31.602L20.4036 34.2631C19.829 34.8377 19.829 35.7691 20.4036 36.3435C20.9782 36.9181 21.9097 36.9181 22.484 36.3435Z" fill="white"/>
<path id="Vector_28" d="M21.695 35.5543L24.3561 32.8932C24.7909 32.4584 24.896 31.8193 24.6726 31.2851C24.8442 31.3569 25.0053 31.462 25.1449 31.6016C25.7195 32.1762 25.7195 33.1076 25.1449 33.682L22.4838 36.3431C21.9092 36.9177 20.9778 36.9177 20.4034 36.3431C20.2638 36.2035 20.1587 36.0424 20.0869 35.8708C20.6212 36.0944 21.2602 35.9893 21.695 35.5543Z" fill="#D1D3D4"/>
</g>
<g id="Group_16">
<path id="Vector_29" d="M25.276 37.7144L26.7123 36.2781C27.2869 35.7035 27.2869 34.7721 26.7123 34.1977C26.1377 33.6231 25.2062 33.6231 24.6319 34.1977L23.1956 35.634C22.621 36.2086 22.621 37.14 23.1956 37.7144C23.77 38.2888 24.7014 38.2888 25.276 37.7144Z" fill="white"/>
<path id="Vector_30" d="M24.487 36.9254L25.9233 35.4891C26.358 35.0544 26.4631 34.4153 26.2397 33.881C26.4113 33.9529 26.5725 34.0579 26.7121 34.1975C27.2867 34.7721 27.2867 35.7036 26.7121 36.2779L25.2758 37.7142C24.7012 38.2888 23.7698 38.2888 23.1954 37.7142C23.0558 37.5746 22.9507 37.4135 22.8789 37.2419C23.4132 37.4655 24.0522 37.3604 24.487 36.9254Z" fill="#D1D3D4"/>
</g>
</g>
</g>
</g>
</g>
</g>
</svg>
