<svg width="51" height="51" viewBox="0 0 51 51" fill="none" xmlns="http://www.w3.org/2000/svg">
<g id="purpose-icon">
<circle id="Ellipse 29" cx="25.5" cy="25.5" r="25.5" fill="#F6B5BB"/>
<g id="Group">
<g id="Group_2">
<g id="Group_3">
<g id="Group_4">
<path id="Vector" d="M24.2645 36.2491H12.1332C11.213 36.2491 10.4668 35.5031 10.4668 34.5826V12.7389C10.4668 11.8185 11.2128 11.0725 12.1332 11.0725H24.2645C25.1847 11.0725 25.9309 11.8185 25.9309 12.7389V34.5826C25.9309 35.5028 25.1847 36.2491 24.2645 36.2491Z" fill="#EE6A76"/>
</g>
<g id="Group_5">
<g id="Group_6">
<path id="Vector_2" d="M18.1104 15.7475H13.3798C13.0067 15.7475 12.7041 15.4449 12.7041 15.0718C12.7041 14.6987 13.0067 14.3961 13.3798 14.3961H18.1101C18.4833 14.3961 18.7859 14.6987 18.7859 15.0718C18.7861 15.4452 18.4835 15.7475 18.1104 15.7475Z" fill="white"/>
<path id="Vector_3" d="M23.0205 15.7475C22.6473 15.7475 22.3447 15.4449 22.3447 15.0718C22.3447 14.6987 22.6473 14.3961 23.0205 14.3961C23.3938 14.3961 23.6962 14.6987 23.6962 15.0718C23.6964 15.4452 23.3938 15.7475 23.0205 15.7475Z" fill="white"/>
</g>
<g id="Group_7">
<path id="Vector_4" d="M18.1104 22.9839H13.3798C13.0067 22.9839 12.7041 22.6813 12.7041 22.3082C12.7041 21.9351 13.0067 21.6325 13.3798 21.6325H18.1101C18.4833 21.6325 18.7859 21.9351 18.7859 22.3082C18.7861 22.6815 18.4835 22.9839 18.1104 22.9839Z" fill="white"/>
<path id="Vector_5" d="M23.0205 22.9839C22.6473 22.9839 22.3447 22.6813 22.3447 22.3082C22.3447 21.9351 22.6473 21.6325 23.0205 21.6325C23.3938 21.6325 23.6962 21.9351 23.6962 22.3082C23.6964 22.6815 23.3938 22.9839 23.0205 22.9839Z" fill="white"/>
</g>
<path id="Vector_6" d="M25.9309 18.2535H10.4668V19.6049H25.9309V18.2535Z" fill="#EA4554"/>
<path id="Vector_7" d="M25.9309 25.0113H10.4668V26.3627H25.9309V25.0113Z" fill="#EA4554"/>
<path id="Vector_8" d="M18.1094 29.7755H13.3789C13.0057 29.7755 12.7031 29.4729 12.7031 29.0997C12.7031 28.7266 13.0057 28.424 13.3789 28.424H18.1092C18.4823 28.424 18.7849 28.7266 18.7849 29.0997C18.7851 29.4731 18.4825 29.7755 18.1094 29.7755Z" fill="white"/>
<path id="Vector_9" d="M25.9309 31.8029H10.4668V33.1544H25.9309V31.8029Z" fill="#EA4554"/>
</g>
</g>
<g id="Group_8">
<g id="Group_9">
<g id="Group_10">
<path id="Vector_10" d="M33.3973 26.477L31.4492 28.4252L34.3912 31.3671L36.3393 29.419L33.3973 26.477Z" fill="white"/>
</g>
<path id="Vector_11" d="M31.9884 27.8873L31.4502 28.4255L34.3921 31.3674L34.9303 30.8292L31.9884 27.8873Z" fill="#D1D3D4"/>
<g id="Group_11">
<path id="Vector_12" d="M38.754 36.7061L34.4738 32.4258C33.9358 31.8879 33.9358 31.0155 34.4738 30.4774L35.4477 29.5031C35.9857 28.965 36.858 28.965 37.3962 29.5031L41.6765 33.7834C42.2144 34.3216 42.2146 35.1937 41.6765 35.7319L40.7025 36.7059C40.1646 37.2442 39.2922 37.2443 38.754 36.7061Z" fill="#EA4554"/>
</g>
<path id="Vector_13" d="M39.6548 35.8047L35.3745 31.5244C34.8366 30.9864 34.8366 30.1141 35.3745 29.5759L35.4516 29.4988L35.4477 29.5025L34.4738 30.4767C33.9358 31.0146 33.9358 31.887 34.4738 32.4251L38.754 36.7054C39.2922 37.2436 40.1646 37.2433 40.7025 36.7054L41.5993 35.8086C41.0609 36.3428 40.1916 36.3414 39.6548 35.8047Z" fill="#EE6A76"/>
<path id="Vector_14" d="M26.7122 12.2117C21.4492 12.2117 17.1826 16.4783 17.1826 21.7412C17.1826 27.0042 21.4492 31.2708 26.7122 31.2708C31.9751 31.2708 36.2417 27.0042 36.2417 21.7412C36.2417 16.4783 31.9751 12.2117 26.7122 12.2117ZM26.7122 28.8165C22.8045 28.8165 19.6369 25.6486 19.6369 21.7412C19.6369 17.8336 22.8047 14.666 26.7122 14.666C30.6196 14.666 33.7874 17.8338 33.7874 21.7412C33.7874 25.6486 30.6198 28.8165 26.7122 28.8165Z" fill="white"/>
<path id="Vector_15" d="M26.714 13.5886C22.2114 13.5886 18.5615 17.2385 18.5615 21.7411C18.5615 26.2436 22.2114 29.8935 26.714 29.8935C31.2165 29.8935 34.8664 26.2436 34.8664 21.7411C34.8664 17.2385 31.2165 13.5886 26.714 13.5886ZM26.714 28.8165C22.8063 28.8165 19.6387 25.6487 19.6387 21.7413C19.6387 17.8337 22.8066 14.6661 26.714 14.6661C30.6214 14.6661 33.7892 17.8339 33.7892 21.7413C33.7892 25.6487 30.6216 28.8165 26.714 28.8165Z" fill="#D1D3D4"/>
<path id="Vector_16" d="M26.7119 28.8161C30.6195 28.8161 33.7872 25.6484 33.7872 21.7408C33.7872 17.8333 30.6195 14.6656 26.7119 14.6656C22.8044 14.6656 19.6367 17.8333 19.6367 21.7408C19.6367 25.6484 22.8044 28.8161 26.7119 28.8161Z" fill="white"/>
</g>
</g>
<g id="Group_12">
<g id="Group_13">
<g id="Group_14">
<path id="Vector_17" d="M23.3756 22.0653V27.9775C22.9539 27.7534 22.5588 27.486 22.1951 27.1825C21.7517 26.8162 21.3543 26.3946 21.0146 25.9297V22.0653C21.0146 21.9376 21.1158 21.8341 21.2436 21.8341H23.1444C23.2719 21.8341 23.3756 21.9378 23.3756 22.0653Z" fill="#EE6A76"/>
</g>
<g id="Group_15">
<path id="Vector_18" d="M22.1951 21.8341V27.1827C21.7517 26.8165 21.3543 26.3948 21.0146 25.9299V22.0655C21.0146 21.9378 21.1158 21.8344 21.2436 21.8344L22.1951 21.8341Z" fill="#F6B5BB"/>
</g>
</g>
<g id="Group_16">
<g id="Group_17">
<path id="Vector_19" d="M32.816 24.2459V25.3204C32.4932 25.8746 32.0931 26.3805 31.6355 26.8213C31.2766 27.1707 30.8815 27.4815 30.4551 27.7466V24.2459C30.4551 24.1182 30.5585 24.017 30.6863 24.017H32.5871C32.7123 24.017 32.816 24.1182 32.816 24.2459Z" fill="#EE6A76"/>
</g>
<g id="Group_18">
<path id="Vector_20" d="M31.6355 24.017V26.8213C31.2766 27.1707 30.8815 27.4815 30.4551 27.7466V24.2459C30.4551 24.1182 30.5585 24.017 30.6863 24.017H31.6355Z" fill="#F6B5BB"/>
</g>
</g>
<g id="Group_19">
<g id="Group_20">
<path id="Vector_21" d="M25.734 19.3673V28.7465C25.3268 28.6934 24.9342 28.6018 24.5535 28.4791C24.1415 28.3491 23.7464 28.1804 23.373 27.978V19.3673C23.373 19.2396 23.4742 19.1361 23.602 19.1361H25.5028C25.6305 19.1361 25.734 19.2398 25.734 19.3673Z" fill="#EE6A76"/>
</g>
<g id="Group_21">
<path id="Vector_22" d="M24.5535 19.1361V28.4791C24.1415 28.3491 23.7464 28.1804 23.373 27.978V19.3673C23.373 19.2396 23.4742 19.1361 23.602 19.1361H24.5535Z" fill="#EA4554"/>
</g>
</g>
<g id="Group_22">
<g id="Group_23">
<path id="Vector_23" d="M28.092 18.1027V28.6793C27.7091 28.7587 27.314 28.8022 26.9116 28.8118C26.8466 28.8166 26.779 28.8166 26.7115 28.8166C26.3791 28.8166 26.0513 28.7949 25.7334 28.7468V18.1027C25.7334 17.9775 25.8346 17.8738 25.9623 17.8738H27.8631C27.9909 17.8738 28.092 17.9773 28.092 18.1027Z" fill="#EE6A76"/>
</g>
<g id="Group_24">
<path id="Vector_24" d="M26.9116 17.8738V28.8118C26.8466 28.8166 26.779 28.8166 26.7115 28.8166C26.3791 28.8166 26.0513 28.7949 25.7334 28.7468V18.1027C25.7334 17.9775 25.8346 17.8738 25.9623 17.8738H26.9116Z" fill="#F6B5BB"/>
</g>
</g>
<g id="Group_25">
<g id="Group_26">
<path id="Vector_25" d="M30.4527 21.4975V27.747C30.0817 27.9782 29.6866 28.1783 29.2723 28.3374C28.8939 28.4869 28.4988 28.6025 28.0918 28.6796V21.4977C28.0918 21.37 28.1955 21.2688 28.323 21.2688H30.2238C30.3515 21.2686 30.4527 21.3697 30.4527 21.4975Z" fill="#EE6A76"/>
</g>
<g id="Group_27">
<path id="Vector_26" d="M29.2723 21.2686V28.3374C28.8939 28.4868 28.4988 28.6024 28.0918 28.6796V21.4977C28.0918 21.37 28.1955 21.2688 28.323 21.2688L29.2723 21.2686Z" fill="#EA4554"/>
</g>
</g>
</g>
</g>
</g>
</g>
</svg>
