<svg width="51" height="51" viewBox="0 0 51 51" fill="none" xmlns="http://www.w3.org/2000/svg">
<g id="your-rights-icon">
<circle id="Ellipse 29" cx="25.5" cy="25.5" r="25.5" fill="#FCD2AD"/>
<g id="Group">
<g id="Group_2">
<g id="Group_3">
<g id="Group_4">
<g id="Group_5">
<path id="Vector" d="M36.8841 43.3169H13.1529C12.5162 43.3169 12 42.8007 12 42.1639V8.15293C12 7.51621 12.5162 7 13.1529 7H36.8838C37.5206 7 38.0368 7.51621 38.0368 8.15293V42.1639C38.0368 42.8007 37.5208 43.3169 36.8841 43.3169Z" fill="#FDE8D6"/>
</g>
<g id="Group_6">
<path id="Vector_2" d="M34.6688 25.5184H15.8919C15.436 25.5184 15.0664 25.1488 15.0664 24.6929C15.0664 24.2369 15.436 23.8674 15.8919 23.8674H34.6685C35.1244 23.8674 35.494 24.2369 35.494 24.6929C35.4942 25.1491 35.1244 25.5184 34.6688 25.5184Z" fill="white"/>
</g>
<g id="Group_7">
<path id="Vector_3" d="M34.4461 19.0921H15.6692C15.2133 19.0921 14.8438 18.7226 14.8438 18.2666C14.8438 17.8107 15.2133 17.4411 15.6692 17.4411H34.4458C34.9018 17.4411 35.2713 17.8107 35.2713 18.2666C35.2716 18.7228 34.9018 19.0921 34.4461 19.0921Z" fill="white"/>
</g>
<g id="Group_8">
<path id="Vector_4" d="M34.4461 15.9614H15.6692C15.2133 15.9614 14.8438 15.5918 14.8438 15.1359C14.8438 14.6799 15.2133 14.3104 15.6692 14.3104H34.4458C34.9018 14.3104 35.2713 14.6799 35.2713 15.1359C35.2716 15.5921 34.9018 15.9614 34.4461 15.9614Z" fill="white"/>
<path id="Vector_5" d="M34.4461 12.8304H15.6692C15.2133 12.8304 14.8438 12.4608 14.8438 12.0049C14.8438 11.549 15.2133 11.1794 15.6692 11.1794H34.4458C34.9018 11.1794 35.2713 11.549 35.2713 12.0049C35.2716 12.4611 34.9018 12.8304 34.4461 12.8304Z" fill="white"/>
</g>
<g id="Group_9">
<path id="Vector_6" d="M34.6688 29.6501H15.8919C15.436 29.6501 15.0664 29.2805 15.0664 28.8246C15.0664 28.3687 15.436 27.9991 15.8919 27.9991H34.6685C35.1244 27.9991 35.494 28.3687 35.494 28.8246C35.4942 29.2805 35.1244 29.6501 34.6688 29.6501Z" fill="white"/>
</g>
<g id="Group_10">
<path id="Vector_7" d="M34.6688 33.7818H15.8919C15.436 33.7818 15.0664 33.4123 15.0664 32.9563C15.0664 32.5004 15.436 32.1308 15.8919 32.1308H34.6685C35.1244 32.1308 35.494 32.5004 35.494 32.9563C35.494 33.4123 35.1244 33.7818 34.6688 33.7818Z" fill="white"/>
</g>
<g id="Group_11">
<path id="Vector_8" d="M34.6688 37.913H15.8919C15.436 37.913 15.0664 37.5435 15.0664 37.0876C15.0664 36.6316 15.436 36.2621 15.8919 36.2621H34.6685C35.1244 36.2621 35.494 36.6316 35.494 37.0876C35.4942 37.5435 35.1244 37.913 34.6688 37.913Z" fill="white"/>
</g>
<path id="Vector_9" d="M30.1377 20.8931C30.1432 20.9052 30.149 20.9171 30.1553 20.9286C30.1493 20.9171 30.1432 20.9052 30.1377 20.8931ZM30.6048 21.2294C30.6175 21.2308 30.6301 21.2319 30.6431 21.2327C30.6304 21.2319 30.6175 21.231 30.6048 21.2294Z" fill="#D1D3D4"/>
</g>
</g>
<g id="Group_12">
<path id="Vector_10" d="M20.724 23.9024H19.5675C19.4021 23.9024 19.2678 24.0364 19.2678 24.2021V24.4363C19.2678 24.6016 19.4019 24.7359 19.5675 24.7359H20.1478V25.1465C20.1297 25.1572 20.1071 25.169 20.0796 25.1817C19.9475 25.2395 19.7816 25.2689 19.5857 25.2689C19.439 25.2689 19.3149 25.2337 19.2057 25.1613C19.095 25.0878 19.0111 24.9844 18.9495 24.8449C18.8821 24.693 18.8482 24.5114 18.8482 24.3053V23.9178C18.8482 23.5945 18.9154 23.3485 19.048 23.187C19.1696 23.039 19.3267 22.9702 19.5433 22.9702C19.7254 22.9702 19.8636 23.0095 19.9648 23.0907C20.0617 23.168 20.1222 23.2869 20.1503 23.4539C20.1745 23.5981 20.2994 23.7038 20.4458 23.7038H20.7226C20.8088 23.7038 20.8908 23.6666 20.9477 23.602C21.0047 23.5373 21.0308 23.4512 21.0198 23.3656C20.9708 22.9883 20.8123 22.6851 20.5479 22.4642C20.2879 22.2471 19.9494 22.137 19.5414 22.137C19.0656 22.137 18.6787 22.3043 18.3906 22.6345C18.1133 22.9526 17.9727 23.3813 17.9727 23.9082V24.3237C17.9743 24.6589 18.0406 24.9629 18.1691 25.2271C18.3031 25.5031 18.4968 25.7204 18.7448 25.8732C18.9913 26.0253 19.2745 26.1024 19.5859 26.1024C19.874 26.1024 20.1407 26.0572 20.3784 25.9686C20.6398 25.871 20.8388 25.727 20.9697 25.541C21.0052 25.4907 21.0242 25.4304 21.0242 25.3688V24.2032C21.0237 24.0367 20.8894 23.9024 20.724 23.9024Z" fill="#F78E32"/>
<path id="Vector_11" d="M23.8495 22.4043C23.5914 22.256 23.2984 22.1811 22.9781 22.1811H22.0623C21.897 22.1811 21.7627 22.3151 21.7627 22.4808V25.7572C21.7627 25.9225 21.8967 26.0568 22.0623 26.0568H22.958C23.2885 26.0568 23.5881 25.9814 23.8482 25.8328C24.1129 25.6815 24.3206 25.4641 24.4656 25.1873C24.6062 24.9185 24.6775 24.6097 24.6775 24.2699V23.9683C24.6775 23.6299 24.606 23.3211 24.4642 23.0507C24.3187 22.7725 24.1118 22.5548 23.8495 22.4043ZM23.8036 23.9623V24.2506C23.8036 24.5665 23.7268 24.8045 23.5689 24.9779C23.4184 25.1433 23.2191 25.2236 22.9599 25.2236H22.6385V23.0146H22.9811C23.2315 23.0157 23.425 23.0955 23.5727 23.2584C23.7282 23.4296 23.8036 23.6599 23.8036 23.9623Z" fill="#F78E32"/>
<path id="Vector_12" d="M26.7487 22.1811H25.6327C25.4673 22.1811 25.333 22.3151 25.333 22.4808V25.7572C25.333 25.9225 25.467 26.0568 25.6327 26.0568H25.9095C26.0748 26.0568 26.2091 25.9228 26.2091 25.7572V24.7223H26.7421C27.1755 24.7223 27.5197 24.6128 27.7649 24.3965C28.0211 24.1706 28.151 23.8552 28.151 23.4595C28.151 23.0669 28.0172 22.7496 27.7536 22.5171C27.501 22.2942 27.1628 22.1811 26.7487 22.1811ZM27.1617 23.7752C27.0781 23.8508 26.9391 23.8891 26.7484 23.8891H26.2089V23.0143H26.763C26.9411 23.0163 27.0737 23.0578 27.1565 23.1373C27.2071 23.186 27.2748 23.2727 27.2748 23.4631C27.2748 23.6511 27.2104 23.7314 27.1617 23.7752Z" fill="#F78E32"/>
<path id="Vector_13" d="M31.5915 25.5761L30.9397 24.4658C31.0575 24.3901 31.1604 24.2952 31.247 24.1824C31.4105 23.9691 31.4933 23.721 31.4933 23.445C31.4933 23.0509 31.3593 22.7359 31.0946 22.5078C30.8431 22.2909 30.5016 22.1811 30.0798 22.1811H29.0155C28.8501 22.1811 28.7158 22.3151 28.7158 22.4808V25.7572C28.7158 25.9225 28.8498 26.0568 29.0155 26.0568H29.2945C29.4599 26.0568 29.5941 25.9228 29.5941 25.7572V24.6909H30.0737L30.7793 25.9074C30.8329 25.9999 30.9317 26.0568 31.0385 26.0568H31.3332C31.4985 26.0568 31.6328 25.8934 31.6328 25.728C31.6325 25.6743 31.6185 25.6221 31.5915 25.5761ZM29.5941 23.0143H30.0754C30.2653 23.0143 30.4075 23.0542 30.4978 23.1327C30.5481 23.1764 30.6153 23.2565 30.6153 23.445C30.6153 23.5715 30.5781 23.6656 30.4983 23.7402C30.4141 23.8192 30.298 23.8574 30.1428 23.8574H29.5941V23.0143Z" fill="#F78E32"/>
</g>
</g>
</g>
</g>
</svg>
