<svg width="51" height="51" viewBox="0 0 51 51" fill="none" xmlns="http://www.w3.org/2000/svg">
<g id="your-rights-icon-grey">
<circle id="Ellipse 29" cx="25.5" cy="25.5" r="25.5" fill="#CCCCCC"/>
<g id="Group">
<g id="Group_2">
<g id="Group_3">
<g id="Group_4">
<g id="Group_5">
<path id="Vector" d="M37.226 43.3833H12.5262C11.8634 43.3833 11.3262 42.8671 11.3262 42.2303V8.21934C11.3262 7.58261 11.8634 7.06641 12.5262 7.06641H37.2257C37.8884 7.06641 38.4257 7.58261 38.4257 8.21934V42.2303C38.4257 42.8671 37.8887 43.3833 37.226 43.3833Z" fill="#E9E8E7"/>
</g>
<g id="Group_6">
<path id="Vector_2" d="M34.922 25.5846H15.3787C14.9042 25.5846 14.5195 25.215 14.5195 24.7591C14.5195 24.3031 14.9042 23.9336 15.3787 23.9336H34.9217C35.3962 23.9336 35.7809 24.3031 35.7809 24.7591C35.7812 25.2153 35.3962 25.5846 34.922 25.5846Z" fill="white"/>
</g>
<g id="Group_7">
<path id="Vector_3" d="M34.6896 19.1588H15.1463C14.6717 19.1588 14.2871 18.7892 14.2871 18.3333C14.2871 17.8774 14.6717 17.5078 15.1463 17.5078H34.6893C35.1638 17.5078 35.5485 17.8774 35.5485 18.3333C35.5487 18.7895 35.1638 19.1588 34.6896 19.1588Z" fill="white"/>
</g>
<g id="Group_8">
<path id="Vector_4" d="M34.6896 16.028H15.1463C14.6717 16.028 14.2871 15.6585 14.2871 15.2025C14.2871 14.7466 14.6717 14.3771 15.1463 14.3771H34.6893C35.1638 14.3771 35.5485 14.7466 35.5485 15.2025C35.5487 15.6588 35.1638 16.028 34.6896 16.028Z" fill="white"/>
<path id="Vector_5" d="M34.6896 12.8971H15.1463C14.6717 12.8971 14.2871 12.5275 14.2871 12.0716C14.2871 11.6156 14.6717 11.2461 15.1463 11.2461H34.6893C35.1638 11.2461 35.5485 11.6156 35.5485 12.0716C35.5487 12.5278 35.1638 12.8971 34.6896 12.8971Z" fill="white"/>
</g>
<g id="Group_9">
<path id="Vector_6" d="M34.922 29.7164H15.3787C14.9042 29.7164 14.5195 29.3469 14.5195 28.8909C14.5195 28.435 14.9042 28.0654 15.3787 28.0654H34.9217C35.3962 28.0654 35.7809 28.435 35.7809 28.8909C35.7812 29.3469 35.3962 29.7164 34.922 29.7164Z" fill="white"/>
</g>
<g id="Group_10">
<path id="Vector_7" d="M34.922 33.8482H15.3787C14.9042 33.8482 14.5195 33.4787 14.5195 33.0228C14.5195 32.5668 14.9042 32.1973 15.3787 32.1973H34.9217C35.3962 32.1973 35.7809 32.5668 35.7809 33.0228C35.7809 33.4787 35.3962 33.8482 34.922 33.8482Z" fill="white"/>
</g>
<g id="Group_11">
<path id="Vector_8" d="M34.922 37.9791H15.3787C14.9042 37.9791 14.5195 37.6096 14.5195 37.1536C14.5195 36.6977 14.9042 36.3281 15.3787 36.3281H34.9217C35.3962 36.3281 35.7809 36.6977 35.7809 37.1536C35.7812 37.6096 35.3962 37.9791 34.922 37.9791Z" fill="white"/>
</g>
<path id="Vector_9" d="M30.2051 20.96C30.2108 20.9721 30.2168 20.9839 30.2234 20.9955C30.2171 20.9839 30.2108 20.9721 30.2051 20.96ZM30.6912 21.2962C30.7044 21.2976 30.7176 21.2987 30.7311 21.2995C30.7179 21.2987 30.7044 21.2979 30.6912 21.2962Z" fill="#D1D3D4"/>
</g>
</g>
<g id="Group_12">
<path id="Vector_10" d="M20.4086 23.9686H19.2049C19.0327 23.9686 18.893 24.1026 18.893 24.2682V24.5024C18.893 24.6678 19.0325 24.802 19.2049 24.802H19.8089V25.2126C19.79 25.2233 19.7665 25.2351 19.7378 25.2478C19.6004 25.3056 19.4277 25.335 19.2238 25.335C19.0711 25.335 18.942 25.2998 18.8283 25.2274C18.7131 25.154 18.6258 25.0505 18.5616 24.911C18.4915 24.7591 18.4562 24.5775 18.4562 24.3714V23.984C18.4562 23.6607 18.5261 23.4147 18.6642 23.2531C18.7907 23.1051 18.9543 23.0363 19.1797 23.0363C19.3693 23.0363 19.513 23.0757 19.6184 23.1568C19.7192 23.2342 19.7822 23.353 19.8114 23.5201C19.8366 23.6642 19.9667 23.7699 20.119 23.7699H20.4071C20.4968 23.7699 20.5821 23.7328 20.6414 23.6681C20.7007 23.6034 20.7279 23.5173 20.7165 23.4317C20.6655 23.0545 20.5005 22.7512 20.2253 22.5303C19.9546 22.3132 19.6024 22.2031 19.1777 22.2031C18.6825 22.2031 18.2798 22.3704 17.98 22.7006C17.6913 23.0187 17.5449 23.4474 17.5449 23.9743V24.3898C17.5466 24.725 17.6157 25.0291 17.7494 25.2932C17.8889 25.5692 18.0905 25.7866 18.3485 25.9393C18.6052 26.0915 18.8999 26.1685 19.2241 26.1685C19.5239 26.1685 19.8014 26.1234 20.0489 26.0348C20.3209 25.9371 20.528 25.7932 20.6643 25.6072C20.7013 25.5568 20.721 25.4966 20.721 25.4349V24.2693C20.7205 24.1029 20.5807 23.9686 20.4086 23.9686Z" fill="#A9A6A4"/>
<path id="Vector_11" d="M23.6622 22.4704C23.3936 22.3221 23.0886 22.2473 22.7552 22.2473H21.8021C21.63 22.2473 21.4902 22.3813 21.4902 22.5469V25.8233C21.4902 25.9887 21.6297 26.1229 21.8021 26.1229H22.7343C23.0783 26.1229 23.3902 26.0475 23.6608 25.899C23.9363 25.7476 24.1526 25.5302 24.3035 25.2534C24.4498 24.9846 24.524 24.6759 24.524 24.336V24.0345C24.524 23.696 24.4495 23.3873 24.3021 23.1168C24.1506 22.8386 23.9352 22.6209 23.6622 22.4704ZM23.6144 24.0284V24.3168C23.6144 24.6327 23.5345 24.8707 23.3701 25.044C23.2135 25.2094 23.0061 25.2897 22.7363 25.2897H22.4018V23.0807H22.7584C23.019 23.0818 23.2203 23.1616 23.3741 23.3245C23.5359 23.4957 23.6144 23.726 23.6144 24.0284Z" fill="#A9A6A4"/>
<path id="Vector_12" d="M26.6786 22.2473H25.517C25.3448 22.2473 25.2051 22.3813 25.2051 22.5469V25.8233C25.2051 25.9887 25.3445 26.1229 25.517 26.1229H25.8051C25.9772 26.1229 26.117 25.9889 26.117 25.8233V24.7884H26.6717C27.1228 24.7884 27.4811 24.6789 27.7362 24.4626C28.0029 24.2367 28.138 23.9214 28.138 23.5257C28.138 23.133 27.9989 22.8158 27.7245 22.5832C27.4616 22.3604 27.1096 22.2473 26.6786 22.2473ZM27.1085 23.8413C27.0214 23.917 26.8768 23.9552 26.6783 23.9552H26.1167V23.0805H26.6935C26.8788 23.0824 27.0168 23.1239 27.103 23.2035C27.1557 23.2522 27.2262 23.3388 27.2262 23.5293C27.2262 23.7172 27.1591 23.7975 27.1085 23.8413Z" fill="#A9A6A4"/>
<path id="Vector_13" d="M31.7197 25.642L31.0412 24.5318C31.1638 24.4561 31.2709 24.3611 31.3611 24.2483C31.5312 24.0351 31.6174 23.7869 31.6174 23.5109C31.6174 23.1169 31.4779 22.8018 31.2024 22.5737C30.9407 22.3569 30.5853 22.2471 30.1462 22.2471H29.0384C28.8663 22.2471 28.7266 22.3811 28.7266 22.5467V25.8231C28.7266 25.9885 28.866 26.1227 29.0384 26.1227H29.3288C29.501 26.1227 29.6407 25.9887 29.6407 25.8231V24.7568H30.1399L30.8742 25.9733C30.9301 26.0658 31.0329 26.1227 31.144 26.1227H31.4507C31.6229 26.1227 31.7626 25.9593 31.7626 25.7939C31.7623 25.7403 31.7477 25.688 31.7197 25.642ZM29.6407 23.0803H30.1416C30.3392 23.0803 30.4873 23.1202 30.5813 23.1986C30.6337 23.2423 30.7035 23.3224 30.7035 23.5109C30.7035 23.6375 30.6649 23.7316 30.5818 23.8061C30.4942 23.8851 30.3733 23.9234 30.2118 23.9234H29.6407V23.0803Z" fill="#A9A6A4"/>
</g>
</g>
</g>
</g>
</svg>
